<?xml version="1.0" encoding="utf-8"?>
<!-- Generator: Adobe Illustrator 24.1.2, SVG Export Plug-In . SVG Version: 6.00 Build 0)  -->
<svg version="1.1" id="Layer_1" xmlns="http://www.w3.org/2000/svg" xmlns:xlink="http://www.w3.org/1999/xlink" x="0px" y="0px"
	 viewBox="0 0 200 184" style="enable-background:new 0 0 200 184;" xml:space="preserve">
<style type="text/css">
	.st0{
	fill: #a42b31; /* Old browsers */
	fill: -moz-linear-gradient(45deg, #a42b31 0%, #ED754E 100%); /* FF3.6-15 */
	fill: -webkit-linear-gradient(45deg, #a42b31 0%,#ED754E 100%); /* Chrome10-25,Safari5.1-6 */
	fill: linear-gradient(45deg, #a42b31 0%,#ED754E 100%); /* W3C, IE10+, FF16+, Chrome26+, Opera12+, Safari7+ */
	filter: progid:DXImageTransform.Microsoft.gradient( startColorstr='#a42b31', endColorstr='#ED754E',GradientType=1 ); /* IE6-9 fallback on horizontal gradient */;}
</style>
<g>
	<polygon class="st0" points="73.1,102.9 65.6,87.8 56.5,102.9 56.5,160.7 58.2,163.7 73.1,163.7 	"/>
	<path class="st0" d="M100.9,97.3l27.8,22.2c-3.7,0-5.6,1.9-5.6,5.5v27.8c0,3.7,1.8,5.5,5.6,5.5h5.5c3.7,0,5.5-1.9,5.5-5.7v-44.3
		l-33.3-22.2V23.6H89.8v23.8L74.7,72.6l15.1,30.3v60.8h16.6v-55.3C106.4,104.7,104.6,101,100.9,97.3z"/>
	<polygon class="st0" points="73.1,41.8 73.1,23.6 58.2,23.6 56.5,26.6 56.5,69.6 	"/>
	<polygon class="st0" points="39.8,55.4 17.8,93.7 39.8,131.9 	"/>
	<path class="st0" d="M156.4,53.6v21.6c0,3.7,1.8,7.4,5.6,11.1L134.2,64c3.7,0,5.5-1.8,5.5-5.6V30.6c0-3.6-1.9-5.4-5.5-5.4h-5.5
		c-3.7,0-5.6,1.8-5.6,5.4v44.5l33.3,22.2v36.5l23.2-40.1L156.4,53.6z"/>
</g>
</svg>
